<svg id="Layer_1" data-name="Layer 1" xmlns="http://www.w3.org/2000/svg" viewBox="0 0 360 360"><defs><style>.cls-1{fill:#494948;}</style></defs><path class="cls-1" d="M297.15,79.39c0-21.29-15-38.63-33.41-38.63H96.26c-18.42,0-33.41,17.34-33.41,38.63v212c0,13.27,5.77,25.44,15.44,32.57a29.53,29.53,0,0,0,32,2.47l65.6-55.93a6.09,6.09,0,0,1,8.16,0l64,54.84,1.57,1.08A29.56,29.56,0,0,0,263.77,330a30.1,30.1,0,0,0,17.94-6.09c9.67-7.13,15.44-19.3,15.44-32.57Zm-18,212a18.29,18.29,0,0,1-7.1,15,13.41,13.41,0,0,1-14,1.51l-63.19-54.13c-8.86-7.63-20.78-7.62-29.66,0L102,307.86a13.39,13.39,0,0,1-14-1.51,18.29,18.29,0,0,1-7.1-15v-212c0-9.81,6.9-17.78,15.39-17.78H263.74c8.49,0,15.39,8,15.39,17.78Z"/></svg>