<svg id="Layer_1" data-name="Layer 1" xmlns="http://www.w3.org/2000/svg" viewBox="0 0 360 360"><defs><style>.cls-1{fill:#494948;}</style></defs><path class="cls-1" d="M180,316.28c84,0,152.38-61.14,152.38-136.28S264,43.72,180,43.72,27.62,104.86,27.62,180,96,316.28,180,316.28Zm0-255.52c73.52,0,133.33,53.49,133.33,119.24S253.52,299.24,180,299.24,46.67,245.75,46.67,180,106.48,60.76,180,60.76Z"/><path class="cls-1" d="M112.15,247.85l74.45-41.39a5.91,5.91,0,0,0,1.26-9.79L160.61,172.3a7.54,7.54,0,0,0-11,1.12L103.39,240C99.83,245.12,106.43,251,112.15,247.85Z"/><path class="cls-1" d="M197.89,187.7a7.53,7.53,0,0,0,10.94-1.12L255.11,120c3.55-5.11-3.05-11-8.77-7.84l-74.45,41.39a5.92,5.92,0,0,0-1.26,9.79Z"/></svg>