<svg id="Layer_1" data-name="Layer 1" xmlns="http://www.w3.org/2000/svg" viewBox="0 0 360 360"><defs><style>.cls-1{fill:#3a3a3a;}</style></defs><path class="cls-1" d="M35.37,111.81A6.2,6.2,0,0,0,32,120.07L36,128.82a6.56,6.56,0,0,0,8.52,3.25l12.41-5.24a5.9,5.9,0,0,1,8.2,4.59L83.53,296.57A18.34,18.34,0,0,0,102,312.51H255.53A18.34,18.34,0,0,0,274,296.57l18.46-165.35a5.9,5.9,0,0,1,8.23-4.58l13.89,5.93a6.57,6.57,0,0,0,8.54-3.22l4-8.73a6.21,6.21,0,0,0-3.32-8.27l-144-61.47ZM178.76,254.53c-24.17,0-43.77-19-43.77-42.4s19.6-42.4,43.77-42.4,43.76,19,43.76,42.4S202.93,254.53,178.76,254.53Z"/></svg>