<svg id="Layer_1" data-name="Layer 1" xmlns="http://www.w3.org/2000/svg" viewBox="0 0 360 360"><defs><style>.cls-1{fill:#494948;}</style></defs><path class="cls-1" d="M336.5,256.63V107.24c0-17.45-14.88-31.65-33.18-31.65H54.65c-18.29,0-33.17,14.2-33.17,31.65V256.63c0,17.46,14.88,31.66,33.17,31.66H303.32C321.62,288.29,336.5,274.09,336.5,256.63Zm-19.69,0c0,7.1-6.05,12.87-13.49,12.87H54.65c-7.44,0-13.48-5.77-13.48-12.87V159.41l126,27.39c.6.13,1.23.09,1.83.19l3,.66a19.12,19.12,0,0,0,3.21,0c.35,0,.69.11,1,.11s.68-.1,1-.11a19.23,19.23,0,0,0,3.22,0l3.1-.67c.58-.1,1.19-.07,1.76-.19l131.43-28.56Zm0-117.86-136.7,29.71a23,23,0,0,1-7.68,0L41.17,139.94v-32.7c0-7.1,6-12.87,13.48-12.87H303.32c7.44,0,13.49,5.77,13.49,12.87Z"/></svg>