<svg id="Layer_1" data-name="Layer 1" xmlns="http://www.w3.org/2000/svg" viewBox="0 0 360 360"><defs><style>.cls-1{fill:#494948;}</style></defs><path class="cls-1" d="M188.2,41.52C108,41.52,42.81,104.23,42.81,181.31S108,321.1,188.2,321.1s145.39-62.71,145.39-139.79S268.37,41.52,188.2,41.52Zm0,262.11C118.05,303.63,61,248.75,61,181.31S118.05,59,188.2,59s127.22,54.88,127.22,122.31S258.35,303.63,188.2,303.63Z"/><path class="cls-1" d="M188.2,162.35c-10.89,0-19.73,8.49-19.73,19s8.84,19,19.73,19,19.72-8.49,19.72-19S199.09,162.35,188.2,162.35Z"/><path class="cls-1" d="M122.88,162.35c-10.9,0-19.73,8.49-19.73,19s8.83,19,19.73,19,19.72-8.49,19.72-19S133.77,162.35,122.88,162.35Z"/><path class="cls-1" d="M253.52,162.35c-10.89,0-19.72,8.49-19.72,19s8.83,19,19.72,19,19.72-8.49,19.72-19S264.41,162.35,253.52,162.35Z"/></svg>