<svg id="Layer_1" data-name="Layer 1" xmlns="http://www.w3.org/2000/svg" viewBox="0 0 360 360"><defs><style>.cls-1{fill:#494948;}</style></defs><path class="cls-1" d="M307,68.06c0-18.58-14.45-33.69-32.2-33.69H92.91c-17.76,0-32.21,15.11-32.21,33.69V299c0,18.55,14.45,33.67,32.21,33.67H274.8c17.75,0,32.2-15.12,32.2-33.67ZM288.05,299c0,7.64-5.94,13.85-13.25,13.85H92.91c-7.32,0-13.26-6.21-13.26-13.85v-231c0-7.66,5.94-13.88,13.26-13.88H274.8c7.31,0,13.25,6.22,13.25,13.88Z"/><path class="cls-1" d="M252.81,93.78H114.89a9.92,9.92,0,0,0,0,19.82H252.81a9.92,9.92,0,0,0,0-19.82Z"/><path class="cls-1" d="M252.81,133.61H114.89a9.92,9.92,0,0,0,0,19.82H252.81a9.92,9.92,0,0,0,0-19.82Z"/><path class="cls-1" d="M252.81,173.44H114.89a9.91,9.91,0,0,0,0,19.81H252.81a9.91,9.91,0,0,0,0-19.81Z"/><path class="cls-1" d="M252.81,213.28H114.89a9.91,9.91,0,0,0,0,19.81H252.81a9.91,9.91,0,0,0,0-19.81Z"/><path class="cls-1" d="M192.26,253.1H114.89a9.91,9.91,0,0,0,0,19.81h77.37a9.91,9.91,0,0,0,0-19.81Z"/></svg>