<svg id="Layer_1" data-name="Layer 1" xmlns="http://www.w3.org/2000/svg" viewBox="0 0 360 360"><defs><style>.cls-1,.cls-2{fill:#494948;}.cls-2{font-size:120.69px;font-family:Montserrat-Bold, Montserrat Bold;font-weight:700;}</style></defs><path class="cls-1" d="M259.5,64.16a67.74,67.74,0,0,0-41,14A104.39,104.39,0,0,0,202.2,70.4c-5.44-15.55-19.34-26-35.22-26s-29.81,10.49-35.23,26C88.66,86.29,60,128.87,60,177.7v71.5L45.47,275.42a15,15,0,0,0-.09,14.26A13.29,13.29,0,0,0,57,296.85h74.58c5.27,15.67,19.25,26.45,35.38,26.45s30.12-10.78,35.39-26.45H277a13.28,13.28,0,0,0,11.61-7.16,15,15,0,0,0-.09-14.28l-14.53-26.2V213.45c32.29-7.09,56.57-37.45,56.57-73.85C330.51,97.94,298.72,64.16,259.5,64.16ZM75.42,177.7c0-43,26-80.42,64.77-93l4.2-1.36,1-4.54c2.44-10.63,11.29-18.06,21.55-18.06s19.11,7.43,21.55,18.07l1,4.53,4.21,1.36A88.81,88.81,0,0,1,206.38,90a77.5,77.5,0,0,0-17.9,49.6c0,41.3,31.28,74.75,70,75.33v28.32H75.41Zm114.5,102.77-1.09,6.81c-1.83,11.38-11,19.64-21.87,19.64s-20-8.26-21.86-19.65l-1.1-6.8H60.57l11.54-20.84H261.82l11.56,20.84Z"/><ellipse class="cls-1" cx="258.52" cy="139.11" rx="71.12" ry="78.37"/><text class="cls-2" transform="translate(239.02 185.15) scale(0.94 1)">1</text></svg>