<svg id="Layer_1" data-name="Layer 1" xmlns="http://www.w3.org/2000/svg" viewBox="0 0 360 360"><defs><style>.cls-1{fill:#494948;}</style></defs><path class="cls-1" d="M62.75,285.4a40.38,40.38,0,0,0,9.1,33A37.25,37.25,0,0,0,100.1,331.5H274.6a37.25,37.25,0,0,0,28.25-13.12,40.38,40.38,0,0,0,9.1-33C305.26,245,288.2,213.26,262.33,193a101.06,101.06,0,0,0,28.61-70.15c0-56.51-46.47-102.48-103.59-102.48S83.76,66.3,83.76,122.81A101.06,101.06,0,0,0,112.37,193C86.5,213.26,69.44,245,62.75,285.4Zm71-98.72C114.2,170.58,103,147.31,103,122.81c0-46,37.83-83.43,84.34-83.43s84.34,37.43,84.34,83.43c0,24.5-11.19,47.77-30.71,63.87l-10.2,8.39,11.24,7c26.72,16.59,44.33,46.49,50.92,86.43a21.44,21.44,0,0,1-4.76,17.56,17.74,17.74,0,0,1-13.58,6.4H100.1a17.72,17.72,0,0,1-13.58-6.4,21.44,21.44,0,0,1-4.76-17.56c6.59-39.94,24.2-69.84,50.92-86.43l11.24-7Z"/></svg>